<svg xmlns="http://www.w3.org/2000/svg" width="72.006" height="72.009" viewBox="0 0 72.006 72.009">
  <g id="undraw_male_avatar_323b" transform="translate(0)">
    <path id="Path_278" data-name="Path 278" d="M334.006,148a35.881,35.881,0,0,1-2.9,14.177l-.119.275a36.062,36.062,0,0,1-39.232,21.011q-.324-.057-.648-.119a35.682,35.682,0,0,1-6.512-1.921q-.513-.206-1.018-.427c-.23-.1-.46-.2-.688-.31A36.006,36.006,0,1,1,334.006,148Z" transform="translate(-262 -112)" fill="#6c63ff"/>
    <path id="Path_279" data-name="Path 279" d="M413.171,376.771q-.324-.057-.648-.119a148.051,148.051,0,0,0-2.269-21.228,78.763,78.763,0,0,0-3.883-14.121,43.942,43.942,0,0,0-2.031-4.457,23.112,23.112,0,0,0-6.451-7.978l.379-.518a22.274,22.274,0,0,1,5.775,6.613q.768,1.275,1.476,2.72.759,1.547,1.448,3.284.439,1.106.849,2.288a83.056,83.056,0,0,1,3.031,11.715q.276,1.454.526,2.979A151.053,151.053,0,0,1,413.171,376.771Z" transform="translate(-383.415 -305.305)" opacity="0.2"/>
    <path id="Path_280" data-name="Path 280" d="M408.272,612.283c-.23-.1-.46-.2-.688-.31a52.3,52.3,0,0,0-1.379-8.265,27.114,27.114,0,0,0-1.258-3.749,11.249,11.249,0,0,0-3.386-4.742l.379-.517a11.772,11.772,0,0,1,3.541,4.851,33.276,33.276,0,0,1,2.121,7.474C407.932,608.909,408.141,610.73,408.272,612.283Z" transform="translate(-386.694 -543.284)" opacity="0.2"/>
    <circle id="Ellipse_95" data-name="Ellipse 95" cx="3.205" cy="3.205" r="3.205" transform="translate(7.688 17.138)" opacity="0.2"/>
    <circle id="Ellipse_96" data-name="Ellipse 96" cx="3.205" cy="3.205" r="3.205" transform="translate(8.72 44.727)" opacity="0.2"/>
    <path id="Path_281" data-name="Path 281" d="M482.232,298.335a14.236,14.236,0,0,0,.821,7.306,12.974,12.974,0,0,0,2.461-13.885A14.238,14.238,0,0,0,482.232,298.335Z" transform="translate(-458.616 -272.608)" opacity="0.2"/>
    <path id="Path_282" data-name="Path 282" d="M334.129,400.093a14.306,14.306,0,0,0,7.332.479,13.053,13.053,0,0,0-13.244-4.843A14.306,14.306,0,0,0,334.129,400.093Z" transform="translate(-321.164 -365.265)" opacity="0.2"/>
    <path id="Path_283" data-name="Path 283" d="M343.168,640.949a9.979,9.979,0,0,0,5.143.326,9.093,9.093,0,0,0-9.283-3.394A9.979,9.979,0,0,0,343.168,640.949Z" transform="translate(-330.823 -581.69)" opacity="0.2"/>
    <circle id="Ellipse_97" data-name="Ellipse 97" cx="14.036" cy="14.036" r="14.036" transform="translate(21.893 15.904)" fill="#d0cde1"/>
    <path id="Path_284" data-name="Path 284" d="M547.833,457.173s1.754,8.334,1.754,9.211,8.334,4.825,8.334,4.825l7.457-1.316,2.632-7.9s-4.386-6.579-4.386-9.211Z" transform="translate(-517.387 -416.487)" fill="#d0cde1"/>
    <path id="Path_285" data-name="Path 285" d="M443.006,524.291l-.119.275a36.063,36.063,0,0,1-39.232,21.011q-.324-.057-.648-.119a35.678,35.678,0,0,1-6.512-1.921q-.513-.206-1.018-.427c-.23-.1-.46-.2-.688-.31a35.964,35.964,0,0,1-5.885-3.438l-1.664-4.826.935-.714,1.924-1.469,2.053-1.567.534-.408,8.054-6.148.594-.454,4.186-3.2h0s4.527,7.376,11.107,5.183a9.073,9.073,0,0,0,6.436-8.482Z" transform="translate(-373.9 -474.111)" fill="#2f2e41"/>
    <path id="Path_286" data-name="Path 286" d="M457.346,221.816s4.456-9.655,13-7.427,13.369,5.57,13.74,8.913a47.693,47.693,0,0,1-.186,8.356s-.928-6.87-6.87-5.385-15.226.371-15.226.371l-1.485,13.369s-1.671-2.414-3.528-.928S451.4,224.786,457.346,221.816Z" transform="translate(-433.589 -203.184)" fill="#2f2e41"/>
    <path id="Path_287" data-name="Path 287" d="M381.556,688.272q-.513-.206-1.018-.427c-.23-.1-.46-.2-.688-.31a36.092,36.092,0,0,1-9.33-6.253,12.626,12.626,0,0,1,1.781-2.012h6.58l.986,3.317Z" transform="translate(-358.961 -618.846)" fill="#2f2e41"/>
    <path id="Path_288" data-name="Path 288" d="M853.3,576.32l5.644,1a36,36,0,0,1-6.046,9.434Z" transform="translate(-789.959 -526.862)" fill="#2f2e41"/>
  </g>
</svg>
