<svg xmlns="http://www.w3.org/2000/svg" width="24.061" height="24.221" viewBox="0 0 24.061 24.221">
  <g id="noun_Cross_1732953" transform="translate(0.25 0.083)">
    <g id="Group_558" data-name="Group 558" transform="translate(-0.25 -0.083)">
      <path id="Path_312" data-name="Path 312" d="M23.811.011a164.682,164.682,0,0,0-12.629,12.02A148.338,148.338,0,0,0,23.811,23.963C22.069,24.921,14.84,19.608,9,14.469a90.079,90.079,0,0,0-7.229,9.668C-1.186,21.873-.4,19.347.991,17.431a47.448,47.448,0,0,1,5.313-5.4A56.175,56.175,0,0,1,.991,6.63c-1.394-2-2.177-4.442.784-6.707A90.079,90.079,0,0,0,9,9.592C14.84,4.453,22.069-.86,23.811.011Z" transform="translate(0.25 0.083)" fill="#042b64"/>
    </g>
  </g>
</svg>
