<svg xmlns="http://www.w3.org/2000/svg" width="48.858" height="40.133" viewBox="0 0 48.858 40.133">
  <g id="noun_Check_2410845" transform="translate(0.001 0)">
    <path id="Path_311" data-name="Path 311" d="M52.831,9.659A.879.879,0,0,0,51.918,9C37.491,10.121,25.5,19.966,19.531,35.468a12.984,12.984,0,0,0-11.2-5.884,14.824,14.824,0,0,0-3.693.435.872.872,0,0,0-.207,1.591C11.345,35.7,15.6,42.555,17.946,47.59a2.582,2.582,0,0,0,2.334,1.543,2.609,2.609,0,0,0,2.488-1.9c8.522-26.967,29.361-36.467,29.57-36.56A.873.873,0,0,0,52.831,9.659Z" transform="translate(-4.001 -9)" fill="#48b05d"/>
  </g>
</svg>
